<svg xmlns="http://www.w3.org/2000/svg" x="0px" y="0px"
width="48" height="48"
viewBox="0 0 64 64"
style=" fill:#000000;"><path fill="#c2cde7" d="M59,15v34c0,1.82-0.49,3.53-1.34,5c-1.73,2.99-4.96,5-8.66,5H15c-3.7,0-6.93-2.01-8.66-5 C5.49,52.53,5,50.82,5,49V15C5,9.48,9.48,5,15,5h34C54.52,5,59,9.48,59,15z"></path><path fill="#72caaf" d="M58.97 1.03L40 20 32.411 12.411 28.411 16.411 36 24 40 28 44 24 62.97 5.03z"></path><path fill="#97e0bb" d="M40,23.085c-0.64,0-1.28-0.244-1.768-0.731l-7.882-7.882l2.121-2.121L40,19.879L58.909,0.97 l2.121,2.121L41.768,22.354C41.28,22.841,40.64,23.085,40,23.085z"></path><path fill="#acb7d0" d="M57.66,54c-1.73,2.99-4.96,5-8.66,5H15c-3.7,0-6.93-2.01-8.66-5H57.66z"></path><path fill="#8d6c9f" d="M63.707,4.293l-4-4c-0.391-0.391-1.023-0.391-1.414,0l-4.724,4.724C52.176,4.373,50.635,4,49,4H15 C8.93,4,4,8.93,4,15v34c0,2.492,0.841,4.785,2.241,6.631c0.023,0.027,0.038,0.06,0.063,0.084C8.317,58.317,11.46,60,15,60h34 c3.54,0,6.683-1.683,8.696-4.285c0.025-0.025,0.041-0.057,0.063-0.084C59.159,53.785,60,51.492,60,49V15 c0-1.635-0.373-3.176-1.017-4.569l4.724-4.724C64.098,5.316,64.098,4.684,63.707,4.293z M58,15v34 c0,1.094-0.206,2.138-0.566,3.109C57.302,52.044,57.158,52,57,52c-0.553,0-1,0.447-1,1v1.642C54.348,56.687,51.825,58,49,58H15 c-2.825,0-5.348-1.313-7-3.358V53c0-0.553-0.447-1-1-1c-0.158,0-0.302,0.044-0.434,0.109C6.206,51.138,6,50.094,6,49V15 c0-4.96,4.04-9,9-9h34c1.069,0,2.094,0.193,3.048,0.538L40,18.586l-7.293-7.293c-0.391-0.391-1.023-0.391-1.414,0l-4,4 c-0.391,0.391-0.391,1.023,0,1.414l12,12C39.488,28.902,39.744,29,40,29s0.512-0.098,0.707-0.293l16.755-16.755 C57.807,12.906,58,13.931,58,15z M40,26.586L29.414,16L32,13.414l7.293,7.293c0.391,0.391,1.023,0.391,1.414,0L59,2.414L61.586,5 L40,26.586z"></path><path fill="#8d6c9f" d="M12 52c-.553 0-1 .447-1 1v2c0 .553.447 1 1 1s1-.447 1-1v-2C13 52.447 12.553 52 12 52zM27 52c-.553 0-1 .447-1 1v2c0 .553.447 1 1 1s1-.447 1-1v-2C28 52.447 27.553 52 27 52zM32 52c-.553 0-1 .447-1 1v2c0 .553.447 1 1 1s1-.447 1-1v-2C33 52.447 32.553 52 32 52zM37 52c-.553 0-1 .447-1 1v2c0 .553.447 1 1 1s1-.447 1-1v-2C38 52.447 37.553 52 37 52zM42 52c-.553 0-1 .447-1 1v2c0 .553.447 1 1 1s1-.447 1-1v-2C43 52.447 42.553 52 42 52zM46 55c0 .553.447 1 1 1s1-.447 1-1v-2c0-.553-.447-1-1-1s-1 .447-1 1V55zM52 56c.553 0 1-.447 1-1v-2c0-.553-.447-1-1-1s-1 .447-1 1v2C51 55.553 51.447 56 52 56zM17 52c-.553 0-1 .447-1 1v2c0 .553.447 1 1 1s1-.447 1-1v-2C18 52.447 17.553 52 17 52zM22 52c-.553 0-1 .447-1 1v2c0 .553.447 1 1 1s1-.447 1-1v-2C23 52.447 22.553 52 22 52z"></path><path fill="#fff" d="M21 26h4c1.654 0 3 1.346 3 3 0 .553.447 1 1 1s1-.447 1-1c0-2.757-2.243-5-5-5h-4c-2.757 0-5 2.243-5 5v3c0 2.757 2.243 5 5 5h4c1.654 0 3 1.346 3 3v3c0 1.654-1.346 3-3 3h-4c-1.654 0-3-1.346-3-3 0-.553-.447-1-1-1s-1 .447-1 1c0 2.757 2.243 5 5 5h4c2.757 0 5-2.243 5-5v-3c0-2.757-2.243-5-5-5h-4c-1.654 0-3-1.346-3-3v-3C18 27.346 19.346 26 21 26zM34 37v6c0 2.757 2.243 5 5 5h2c2.757 0 5-2.243 5-5 0-.553-.447-1-1-1s-1 .447-1 1c0 1.654-1.346 3-3 3h-2c-1.654 0-3-1.346-3-3v-3h9c.553 0 1-.447 1-1v-2c0-2.757-2.243-5-5-5h-2C36.243 32 34 34.243 34 37zM44 37v1h-8v-1c0-1.654 1.346-3 3-3h2C42.654 34 44 35.346 44 37z"></path></svg>