<svg xmlns="http://www.w3.org/2000/svg" x="0px" y="0px"
width="48" height="48"
viewBox="0 0 64 64"
style=" fill:#000000;"><path fill="#c5e4fa" d="M59,47H5c-1.105,0-2-0.895-2-2V9c0-1.105,0.895-2,2-2h54c1.105,0,2,0.895,2,2v36 C61,46.105,60.105,47,59,47z"></path><polygon fill="#a0aecb" points="23.667,57 27,47 37,47 40.333,57"></polygon><path fill="#c2cde7" d="M3,11V9c0-1.105,0.895-2,2-2h54c1.105,0,2,0.895,2,2v2H3z"></path><path fill="#c2cde7" d="M61,43v2c0,1.105-0.895,2-2,2H5c-1.105,0-2-0.895-2-2v-2H61z"></path><polygon fill="#e3f2ff" points="42.875,43.055 61,24.93 61,11 58.86,11 26.556,43.304"></polygon><polygon fill="#e3f2ff" points="15.836,43.304 22.266,43.304 54.57,11 48.14,11"></polygon><polygon fill="#e3f2ff" points="11.557,43.304 43.86,11 38.5,11 6.196,43.304"></polygon><path fill="#8d6c9f" d="M59,48H5c-1.654,0-3-1.346-3-3V9c0-1.654,1.346-3,3-3h54c1.654,0,3,1.346,3,3v36 C62,46.654,60.654,48,59,48z M5,8C4.449,8,4,8.449,4,9v36c0,0.551,0.449,1,1,1h54c0.551,0,1-0.449,1-1V9c0-0.551-0.449-1-1-1H5z"></path><rect width="58" height="2" x="3" y="10" fill="#8d6c9f"></rect><polygon fill="#c2cde7" points="23.79,23.8 20,25 20,29 23.79,30.2 23.932,30.543 22.101,34.071 24.929,36.899 28.457,35.068 28.8,35.21 30,39 34,39 35.2,35.21 35.543,35.068 39.071,36.899 41.899,34.071 40.068,30.543 40.21,30.2 44,29 44,25 40.21,23.8 40.068,23.457 41.899,19.929 39.071,17.101 35.543,18.932 35.2,18.79 34,15 30,15 28.8,18.79 28.457,18.932 24.929,17.101 22.101,19.929 23.932,23.457"></polygon><path fill="#8d6c9f" d="M44,44H3c-0.552,0-1-0.448-1-1s0.448-1,1-1h41c0.552,0,1,0.448,1,1S44.552,44,44,44z"></path><path fill="#8d6c9f" d="M61,44h-7c-0.552,0-1-0.448-1-1s0.448-1,1-1h7c0.552,0,1,0.448,1,1S61.552,44,61,44z"></path><path fill="#8d6c9f" d="M50,44h-2c-0.552,0-1-0.448-1-1s0.448-1,1-1h2c0.552,0,1,0.448,1,1S50.552,44,50,44z"></path><path fill="#8d6c9f" d="M9,29c-0.552,0-1-0.448-1-1v-2c0-0.552,0.448-1,1-1s1,0.448,1,1v2C10,28.552,9.552,29,9,29z"></path><path fill="#8d6c9f" d="M14,29c-0.552,0-1-0.448-1-1v-2c0-0.552,0.448-1,1-1s1,0.448,1,1v2C15,28.552,14.552,29,14,29z"></path><path fill="#8d6c9f" d="M50,29c-0.552,0-1-0.448-1-1v-2c0-0.552,0.448-1,1-1s1,0.448,1,1v2C51,28.552,50.552,29,50,29z"></path><path fill="#8d6c9f" d="M55,29c-0.552,0-1-0.448-1-1v-2c0-0.552,0.448-1,1-1s1,0.448,1,1v2C56,28.552,55.552,29,55,29z"></path><path fill="#8d6c9f" d="M46,58H18c-0.552,0-1-0.448-1-1s0.448-1,1-1h28c0.552,0,1,0.448,1,1S46.552,58,46,58z"></path><path fill="#8d6c9f" d="M23.667,58c-0.104,0-0.211-0.017-0.316-0.052c-0.524-0.175-0.807-0.741-0.632-1.265l3.333-10 c0.174-0.523,0.739-0.808,1.265-0.632c0.524,0.175,0.807,0.741,0.632,1.265l-3.333,10C24.476,57.735,24.085,58,23.667,58z"></path><path fill="#8d6c9f" d="M40.333,58c-0.419,0-0.809-0.265-0.949-0.684l-3.333-10c-0.175-0.524,0.108-1.09,0.632-1.265 c0.526-0.175,1.091,0.109,1.265,0.632l3.333,10c0.175,0.524-0.108,1.09-0.632,1.265C40.545,57.984,40.438,58,40.333,58z"></path><circle cx="32" cy="27" r="4" fill="#f9dd8f"></circle><path fill="#8d6c9f" d="M32,32c-2.757,0-5-2.243-5-5s2.243-5,5-5s5,2.243,5,5S34.757,32,32,32z M32,24c-1.654,0-3,1.346-3,3 s1.346,3,3,3s3-1.346,3-3S33.654,24,32,24z"></path><polygon fill="#fff8f8" points="14.5,15 15.74,17.26 18,18.5 15.74,19.74 14.5,22 13.26,19.74 11,18.5 13.26,17.26"></polygon><polygon fill="#fff8f8" points="52.42,19.16 53.27,20.73 54.84,21.58 53.27,22.44 52.42,24 51.56,22.44 50,21.58 51.56,20.73"></polygon><polygon fill="#fff8f8" points="47.65,32.7 48.23,33.77 49.3,34.35 48.23,34.94 47.65,36 47.06,34.94 46,34.35 47.06,33.77"></polygon><path fill="#8d6c9f" d="M33.268,40h-2.535c-0.875,0-1.642-0.561-1.907-1.396l-0.708-2.233L26.04,37.45 c-0.78,0.403-1.717,0.258-2.336-0.361l-1.793-1.793c-0.62-0.62-0.765-1.559-0.36-2.336l1.079-2.078l-2.233-0.708 C19.561,29.91,19,29.143,19,28.268v-2.535c0-0.875,0.561-1.642,1.396-1.907l2.233-0.708L21.55,21.04 c-0.404-0.777-0.259-1.716,0.361-2.336l1.793-1.793c0.621-0.62,1.56-0.764,2.336-0.36l2.078,1.079l0.708-2.233 C29.09,14.561,29.857,14,30.732,14h2.535c0.875,0,1.642,0.561,1.907,1.396l0.708,2.233l2.078-1.079 c0.778-0.405,1.716-0.259,2.336,0.361l1.793,1.793c0.62,0.62,0.765,1.559,0.36,2.336l-1.079,2.078l2.233,0.708 C44.439,24.09,45,24.857,45,25.732v2.535c0,0.875-0.561,1.642-1.396,1.907l-2.233,0.708l1.079,2.078 c0.404,0.777,0.259,1.716-0.361,2.336l-1.793,1.793c-0.62,0.621-1.558,0.765-2.336,0.36l-2.078-1.079l-0.708,2.233 C34.91,39.439,34.143,40,33.268,40z M28.458,34.068c0.13,0,0.26,0.025,0.383,0.077l0.342,0.142c0.272,0.113,0.481,0.34,0.57,0.622 L30.732,38h2.536l0.979-3.092c0.089-0.281,0.297-0.509,0.57-0.622l0.342-0.142c0.273-0.113,0.583-0.1,0.844,0.036l2.878,1.494 l1.793-1.792l-1.495-2.878c-0.136-0.263-0.149-0.571-0.036-0.844l0.142-0.342c0.113-0.272,0.34-0.481,0.622-0.57L43,28.268v-2.536 l-3.092-0.979c-0.281-0.089-0.509-0.297-0.622-0.57l-0.142-0.342c-0.113-0.273-0.1-0.582,0.036-0.844l1.494-2.878l-1.792-1.793 l-2.878,1.495c-0.261,0.137-0.571,0.15-0.844,0.036l-0.342-0.142c-0.272-0.113-0.481-0.34-0.57-0.622L33.268,16h-2.536 l-0.979,3.092c-0.089,0.281-0.297,0.509-0.57,0.622l-0.342,0.142c-0.273,0.115-0.581,0.101-0.844-0.036l-2.878-1.494l-1.793,1.792 l1.495,2.878c0.136,0.263,0.149,0.571,0.036,0.844l-0.142,0.342c-0.113,0.272-0.34,0.481-0.622,0.57L21,25.732v2.536l3.092,0.979 c0.281,0.089,0.509,0.297,0.622,0.57l0.142,0.342c0.113,0.273,0.1,0.582-0.036,0.844l-1.494,2.878l1.792,1.793l2.878-1.495 C28.141,34.105,28.299,34.068,28.458,34.068z"></path></svg>