<svg xmlns="http://www.w3.org/2000/svg" x="0px" y="0px"
width="48" height="48"
viewBox="0 0 100 100"
style=" fill:#000000;"><path fill="#78cdd4" d="M83,28.232v43.197c0,2.128-1.353,4.021-3.392,4.725L64.5,83.091l1.5-18.18V34.75l-1.5-18.18 l15.108,6.937C81.647,24.21,83,26.104,83,28.232z"></path><path fill="#1f212b" d="M64.5,84.091c-0.202,0-0.403-0.062-0.574-0.181c-0.291-0.204-0.451-0.548-0.423-0.901l1.5-18.181 L65,34.75l-1.497-18.099c-0.028-0.354,0.132-0.697,0.423-0.901c0.291-0.202,0.668-0.237,0.991-0.09l15.108,6.938 C82.366,23.4,84,25.679,84,28.231v43.197c0,2.553-1.634,4.831-4.065,5.67L64.917,84C64.784,84.061,64.642,84.091,64.5,84.091z M65.638,18.191l1.359,16.477L67,64.91l-1.363,16.559l13.555-6.225C80.908,74.647,82,73.128,82,71.429V28.231 c0-1.699-1.092-3.219-2.718-3.779L65.638,18.191z"></path><path fill="#39c2d8" d="M24.11,66.412L66,34.75V18.585c0-2.007-2.483-2.946-3.812-1.441L16.835,58.609 c-1.508,1.391-1.423,3.799,0.179,5.08c0,0,2.218,2.064,3.021,2.637C21.268,67.206,22.889,67.307,24.11,66.412z"></path><path fill="#1f212b" d="M22.189,68.036L22.189,68.036c-0.954,0-1.925-0.318-2.735-0.896 c-0.831-0.595-2.89-2.503-3.121-2.719c-0.937-0.746-1.53-1.93-1.574-3.199c-0.045-1.269,0.466-2.489,1.398-3.35l45.32-41.434 c0.611-0.669,1.435-1.036,2.326-1.036c1.571,0,3.196,1.189,3.196,3.182V34.75c0,0.313-0.147,0.608-0.397,0.798L24.713,67.21 C23.971,67.754,23.103,68.036,22.189,68.036z M63.804,17.403c-0.232,0-0.571,0.069-0.865,0.403 c-0.023,0.026-0.049,0.052-0.075,0.076L17.51,59.347c-0.501,0.462-0.776,1.121-0.753,1.807c0.024,0.687,0.346,1.326,0.882,1.756 c0.66,0.609,2.362,2.164,2.978,2.604c0.896,0.64,2.088,0.689,2.903,0.093L65,34.252V18.585C65,17.845,64.392,17.403,63.804,17.403z"></path><polygon fill="#39c2d8" points="51.489,46.961 39.012,36.932 21.489,52.964 32.264,61.53"></polygon><path fill="#39c2d8" d="M24.11,33.248L66,64.911v16.164c0,2.007-2.483,2.946-3.812,1.441L16.835,41.052 c-1.508-1.391-1.423-3.799,0.179-5.08c0,0,2.218-2.064,3.021-2.637C21.268,32.454,22.889,32.354,24.11,33.248z"></path><path fill="#1f212b" d="M63.804,84.257c-0.892,0-1.715-0.367-2.326-1.036L16.16,41.79c-0.937-0.863-1.446-2.084-1.401-3.354 c0.044-1.27,0.639-2.452,1.63-3.246c0.176-0.167,2.234-2.076,3.065-2.67c1.586-1.132,3.753-1.174,5.247-0.079l41.901,31.671 C66.853,64.302,67,64.597,67,64.91v16.165C67,83.067,65.375,84.257,63.804,84.257z M22.189,33.624c-0.541,0-1.1,0.186-1.573,0.524 c-0.615,0.438-2.317,1.993-2.921,2.556c-0.593,0.478-0.914,1.116-0.938,1.803c-0.023,0.686,0.252,1.345,0.756,1.81l45.351,41.461 c0.026,0.024,0.052,0.05,0.075,0.076c0.294,0.334,0.633,0.403,0.865,0.403c0.588,0,1.196-0.441,1.196-1.182V65.408L23.508,34.046 C23.135,33.772,22.674,33.624,22.189,33.624z"></path><path fill="#1f212b" d="M49.444,48.275c-0.303,0-0.602-0.137-0.799-0.396c-0.333-0.441-0.246-1.068,0.194-1.401l4.188-3.166 c0.44-0.335,1.067-0.245,1.401,0.194c0.333,0.441,0.246,1.068-0.194,1.401l-4.188,3.166C49.866,48.21,49.654,48.275,49.444,48.275z"></path><path fill="#1f212b" d="M29.059,63.688c-0.303,0-0.602-0.137-0.799-0.396c-0.333-0.44-0.246-1.068,0.194-1.401l3.141-2.375 c0.441-0.334,1.067-0.246,1.401,0.194c0.333,0.44,0.246,1.068-0.194,1.401l-3.141,2.375C29.48,63.622,29.269,63.688,29.059,63.688z"></path><g><path fill="#1f212b" d="M78.5,72.125c-0.276,0-0.5-0.224-0.5-0.5v-5.75c0-0.276,0.224-0.5,0.5-0.5s0.5,0.224,0.5,0.5v5.75 C79,71.901,78.776,72.125,78.5,72.125z M78.5,63.375c-0.276,0-0.5-0.224-0.5-0.5v-1c0-0.276,0.224-0.5,0.5-0.5s0.5,0.224,0.5,0.5v1 C79,63.151,78.776,63.375,78.5,63.375z M78.5,60.375c-0.276,0-0.5-0.224-0.5-0.5v-4c0-0.276,0.224-0.5,0.5-0.5s0.5,0.224,0.5,0.5v4 C79,60.151,78.776,60.375,78.5,60.375z M78.5,53.375c-0.276,0-0.5-0.224-0.5-0.5v-25c0-0.276,0.224-0.5,0.5-0.5s0.5,0.224,0.5,0.5 v25C79,53.151,78.776,53.375,78.5,53.375z"></path></g><g><path fill="#1f212b" d="M38.531,39.771c-0.272,0-0.544-0.11-0.741-0.328c-0.371-0.409-0.34-1.042,0.069-1.413l3.438-3.115 c0.409-0.369,1.042-0.341,1.413,0.069c0.371,0.409,0.34,1.042-0.069,1.413l-3.438,3.115C39.012,39.686,38.771,39.771,38.531,39.771 z"></path></g><g><path fill="#1f212b" d="M20.547,56.23c-0.271,0-0.541-0.109-0.738-0.325c-0.373-0.408-0.344-1.041,0.063-1.413l2.767-2.526 c0.408-0.373,1.04-0.346,1.413,0.064c0.373,0.407,0.344,1.04-0.063,1.412l-2.767,2.526C21.029,56.145,20.788,56.23,20.547,56.23z"></path></g></svg>